{"title":"Intruders 2011 TS XviD Feel-Free","uid":7057445,"size":1123382474,"categoryP":"video","categoryS":"movies","magnet":"?xt=urn:btih:54a79f7b172603790788ed5dc7e741176ec17fd8&amp;dn=Intruders+2011+TS+XviD+Feel-Free&amp;tr=udp%3A%2F%2Ftracker.openbittorrent.com%3A80&amp;tr=udp%3A%2F%2Fopen.demonii.com%3A1337&amp;tr=udp%3A%2F%2Ftracker.coppersurfer.tk%3A6969&amp;tr=udp%3A%2F%2Fexodus.desync.com%3A6969","seeders":0,"leechers":0,"uploader":"MScope40","files":1,"time":1330186303,"description":"Plot:\nTwo children living in different countries are visited nightly by a faceless being who wants to take possession of them.\n\nGenre: Horror | Thriller\nLanguage:English\nIMDb:http://www.imdb.com/title/tt1634121/\nSource:26K Thanks!\nEncoder:Tony\n\nFormat : AVI\nFormat/Info : Audio Video Interleave\nFile size : 1.05 GiB\nDuration : 1h 34mn\nOverall bit rate : 1 585 Kbps\n\nVideo\nID : 0\nFormat : MPEG-4 Visual\nFormat profile : Advanced Simple@L5\nFormat settings, BVOP : 2\nFormat settings, QPel : No\nFormat settings, GMC : No warppoints\nFormat settings, Matrix : Default (H.263)\nMuxing mode : Packed bitstream\nCodec ID : XVID\nCodec ID/Hint : XviD\nDuration : 1h 34mn\nBit rate : 1 255 Kbps\nWidth : 720 pixels\nHeight : 304 pixels\nDisplay aspect ratio : 2.35:1\nFrame rate : 25.000 fps\nColor space : YUV\nChroma subsampling : 4:2:0\nBit depth : 8 bits\nScan type : Progressive\nCompression mode : Lossy\nBits/(Pixel*Frame) : 0.229\nStream size : 848 MiB (79%)\nWriting library : XviD 64\n\nAudio\nID : 1\nFormat : AC-3\nFormat/Info : Audio Coding 3\nMode extension : CM (complete main)\nCodec ID : 2000\nDuration : 1h 34mn\nBit rate mode : Constant\nBit rate : 320 Kbps\nChannel(s) : 2 channels\nChannel positions : Front: L R\nSampling rate : 48.0 KHz\nBit depth : 16 bits\nCompression mode : Lossy\nDelay relative to video : 350ms\nStream size : 216 MiB (20%)\nAlignment : Split accross interleaves\nInterleave, duration : 40 ms (1.00 video frame)\nInterleave, preload duration : 500 ms\n &lt;a href=&quot;\nhttp://www.aedes.us/e/X8T4B.png&quot; rel=&quot;nofollow&quot; target=&quot;_NEW&quot;&gt;\nhttp://www.aedes.us/e/X8T4B.png&lt;/a&gt;\n &lt;a href=&quot;\nhttp://www.aedes.us/e/0rAGO.png&quot; rel=&quot;nofollow&quot; target=&quot;_NEW&quot;&gt;\nhttp://www.aedes.us/e/0rAGO.png&lt;/a&gt;\n &lt;a href=&quot;\nhttp://www.aedes.us/e/MoP6.png&quot; rel=&quot;nofollow&quot; target=&quot;_NEW&quot;&gt;\nhttp://www.aedes.us/e/MoP6.png&lt;/a&gt;","torrent":{"xt":"urn:btih:54a79f7b172603790788ed5dc7e741176ec17fd8","amp;dn":"Intruders+2011+TS+XviD+Feel-Free","amp;tr":["udp%3A%2F%2Ftracker.openbittorrent.com%3A80","udp%3A%2F%2Fopen.demonii.com%3A1337","udp%3A%2F%2Ftracker.coppersurfer.tk%3A6969","udp%3A%2F%2Fexodus.desync.com%3A6969"],"infoHash":"54a79f7b172603790788ed5dc7e741176ec17fd8","infoHashBuffer":{"type":"Buffer","data":[84,167,159,123,23,38,3,121,7,136,237,93,199,231,65,23,110,193,127,216]},"announce":[],"urlList":[]}}